HIERARCHY
ROOT Pelvis
{
	OFFSET 0.000000 0.941512 0.000000
	CHANNELS 6 Xposition Yposition Zposition Zrotation Yrotation Xrotation 
	JOINT Pelvis_L_Hip
	{
		OFFSET 0.000000 0.000000 0.000000
		CHANNELS 3 Zrotation Yrotation Xrotation
		JOINT L_Hip
		{
			OFFSET 0.062321 -0.080322 -0.016990
			CHANNELS 3 Zrotation Yrotation Xrotation
			JOINT L_Knee
			{
				OFFSET 0.093051 -0.381305 -0.029784
				CHANNELS 3 Zrotation Yrotation Xrotation
				JOINT L_Ankle
				{
					OFFSET -0.010371 -0.431000 -0.033614
					CHANNELS 3 Zrotation Yrotation Xrotation
					End Site #name: L_Foot
					{
						OFFSET 0.069299 -0.038670 0.119418
					}
				}
			}
		}
	}
	JOINT Pelvis_R_Hip
	{
		OFFSET 0.000000 0.000000 0.000000
		CHANNELS 3 Zrotation Yrotation Xrotation
		JOINT R_Hip
		{
			OFFSET -0.055334 -0.094904 -0.002373
			CHANNELS 3 Zrotation Yrotation Xrotation
			JOINT R_Knee
			{
				OFFSET -0.064207 -0.384370 -0.019592
				CHANNELS 3 Zrotation Yrotation Xrotation
				JOINT R_Ankle
				{
					OFFSET 0.025418 -0.419734 -0.065953
					CHANNELS 3 Zrotation Yrotation Xrotation
					End Site #name: R_Foot
					{
						OFFSET -0.057233 -0.039888 0.132134
					}
				}
			}
		}
	}
	JOINT Pelvis_Spine1
	{
		OFFSET 0.000000 0.000000 0.000000
		CHANNELS 3 Zrotation Yrotation Xrotation
		JOINT Spine1
		{
			OFFSET -0.005562 0.124093 -0.043360
			CHANNELS 3 Zrotation Yrotation Xrotation
			JOINT Spine2
			{
				OFFSET 0.012244 0.139499 0.029894
				CHANNELS 3 Zrotation Yrotation Xrotation
				JOINT Spine3
				{
					OFFSET -0.002556 0.056561 0.009225
					CHANNELS 3 Zrotation Yrotation Xrotation
					JOINT Spine3_Neck
					{
						OFFSET 0.000000 0.000000 0.000000
						CHANNELS 3 Zrotation Yrotation Xrotation
						JOINT Neck
						{
							OFFSET -0.005205 0.217920 -0.024551
							CHANNELS 3 Zrotation Yrotation Xrotation
							End Site #name: Head
							{
								OFFSET 0.002365 0.091850 0.046637
							}
						}
					}
					JOINT Spine3_L_Collar
					{
						OFFSET 0.000000 0.000000 0.000000
						CHANNELS 3 Zrotation Yrotation Xrotation
						JOINT L_Collar
						{
							OFFSET 0.072225 0.116603 -0.009480
							CHANNELS 3 Zrotation Yrotation Xrotation
							JOINT L_Shoulder
							{
								OFFSET 0.115937 -0.058643 -0.021018
								CHANNELS 3 Zrotation Yrotation Xrotation
								JOINT L_Elbow
								{
									OFFSET 0.021994 -0.254722 -0.024492
									CHANNELS 3 Zrotation Yrotation Xrotation
									End Site #name: L_Wrist
									{
										OFFSET 0.048810 -0.240214 0.103329
									}
								}
							}
						}
					}
					JOINT Spine3_R_Collar
					{
						OFFSET 0.000000 0.000000 0.000000
						CHANNELS 3 Zrotation Yrotation Xrotation
						JOINT R_Collar
						{
							OFFSET -0.073372 0.120704 -0.024611
							CHANNELS 3 Zrotation Yrotation Xrotation
							JOINT R_Shoulder
							{
								OFFSET -0.108089 -0.054969 -0.020504
								CHANNELS 3 Zrotation Yrotation Xrotation
								JOINT R_Elbow
								{
									OFFSET -0.033684 -0.260739 0.009889
									CHANNELS 3 Zrotation Yrotation Xrotation
									End Site #name: R_Wrist
									{
										OFFSET -0.067980 -0.232763 0.118463
									}
								}
							}
						}
					}
				}
			}
		}
	}
}
MOTION
Frames: 8
Frame Time: 0.041667
0.007753 0.956598 0.013214 -3.915574 -4.432613 2.802051 0.000000 0.000000 0.000000 -1.694284 -0.444785 -2.229810 5.481513 -0.413388 -0.487919 -4.789829 -8.167667 3.695976 0.000000 0.000000 0.000000 3.994972 -0.029302 -1.028611 -3.788774 0.197934 -4.073489 4.340616 7.412066 4.141813 0.000000 0.000000 0.000000 9.374253 -1.621551 -2.618127 -9.506465 0.800438 -6.055243 2.776788 6.733695 3.817843 0.000000 0.000000 0.000000 -31.224158 15.636135 -0.841655 0.000000 0.000000 0.000000 44.777547 -5.435597 5.388694 3.180569 -1.880662 -28.617304 75.866894 36.464419 -6.712537 0.000000 0.000000 0.000000 -69.542638 25.489034 -28.192813 -13.757748 -0.049879 -45.463941 -17.088629 0.667361 -58.826113 
0.008511 0.956562 0.012752 -3.910931 -4.332167 2.695233 0.000000 0.000000 0.000000 -1.684536 -0.444824 -2.227872 5.408538 -0.409977 -0.450762 -4.838388 -8.231716 3.736363 0.000000 0.000000 0.000000 3.979149 -0.035364 -0.989813 -3.807723 0.205755 -4.017742 4.303881 7.279832 4.157145 0.000000 0.000000 0.000000 9.550052 -1.675372 -2.494232 -9.651338 0.794572 -6.229998 2.731060 6.737914 3.984310 0.000000 0.000000 0.000000 -31.255723 15.644197 -0.857467 0.000000 0.000000 0.000000 44.477232 -5.210533 5.604218 3.405799 -1.847595 -28.681574 75.451457 36.348180 -6.877645 0.000000 0.000000 0.000000 -68.592120 25.396406 -27.699900 -14.430241 -0.378342 -43.180607 -15.567229 0.832518 -51.263550 
0.009104 0.956566 0.012107 -3.915675 -4.281538 2.599454 0.000000 0.000000 0.000000 -1.665421 -0.440849 -2.207359 5.338546 -0.404219 -0.453835 -4.873498 -8.262930 3.774026 0.000000 0.000000 0.000000 3.985366 -0.039513 -0.966929 -3.838826 0.213363 -3.978063 4.296648 7.197539 4.196120 0.000000 0.000000 0.000000 9.747567 -1.747446 -2.293886 -9.843066 0.788156 -6.449922 2.709527 6.743662 4.063161 0.000000 0.000000 0.000000 -31.172763 15.593938 -0.876479 0.000000 0.000000 0.000000 44.279399 -5.019764 5.792468 3.539869 -1.829667 -28.751583 75.089886 36.261695 -7.059362 0.000000 0.000000 0.000000 -68.040948 25.387493 -27.507840 -14.934487 -0.602469 -41.795753 -13.884868 0.646496 -42.407026 
0.009424 0.956496 0.011302 -3.927662 -4.261482 2.500433 0.000000 0.000000 0.000000 -1.639053 -0.434396 -2.175493 5.286793 -0.398523 -0.477267 -4.906543 -8.278840 3.817676 0.000000 0.000000 0.000000 4.010707 -0.051464 -0.910321 -3.870073 0.214522 -4.007141 4.313401 7.152424 4.257074 0.000000 0.000000 0.000000 9.968945 -1.818672 -2.128032 -10.079847 0.800115 -6.560404 2.682741 6.769295 4.078084 0.000000 0.000000 0.000000 -31.070028 15.516116 -0.946349 0.000000 0.000000 0.000000 44.203510 -4.893577 5.935698 3.658175 -1.821466 -28.965574 74.835200 36.200677 -7.187529 0.000000 0.000000 0.000000 -67.834648 25.477456 -27.634006 -15.219056 -0.721400 -41.081872 -12.321536 0.006629 -32.984655 
0.009455 0.956425 0.010448 -3.938850 -4.242076 2.414289 0.000000 0.000000 0.000000 -1.615270 -0.430800 -2.155256 5.259906 -0.393994 -0.510391 -4.942522 -8.297094 3.864557 0.000000 0.000000 0.000000 4.041308 -0.067069 -0.837855 -3.887467 0.208448 -4.094996 4.342936 7.120232 4.334578 0.000000 0.000000 0.000000 10.124410 -1.873811 -1.983616 -10.267620 0.816280 -6.595501 2.681419 6.823338 4.047388 0.000000 0.000000 0.000000 -31.032008 15.443839 -1.090851 0.000000 0.000000 0.000000 44.161380 -4.854290 5.996914 3.797873 -1.812789 -29.245390 74.691489 36.163695 -7.257489 0.000000 0.000000 0.000000 -67.648293 25.654282 -27.941627 -15.338553 -0.767562 -40.532409 -11.181459 -0.923809 -24.448045 
0.009600 0.956166 0.009821 -3.911504 -4.117122 2.737964 0.000000 0.000000 0.000000 -2.044968 -0.606071 -2.930064 6.239578 -0.519034 0.144346 -5.264495 -9.212901 3.903681 0.000000 0.000000 0.000000 4.420597 0.057478 -1.540882 -4.923248 0.386063 -3.580295 4.529893 7.946881 4.194483 0.000000 0.000000 0.000000 10.203712 -1.798874 -2.525737 -10.675160 0.952843 -5.910458 3.264254 6.788425 3.224491 0.000000 0.000000 0.000000 -31.565075 16.010856 0.012792 0.000000 0.000000 0.000000 44.120772 -5.415005 5.354266 3.467629 -1.832793 -28.416943 74.915271 35.662060 -6.242659 0.000000 0.000000 0.000000 -68.280253 25.965483 -28.654386 -14.954549 -0.597380 -39.294174 -10.393199 -1.689115 -18.099865 
0.009496 0.956156 0.009327 -3.910511 -4.079399 2.695036 0.000000 0.000000 0.000000 -2.053157 -0.600412 -2.910116 6.266498 -0.518013 0.106434 -5.314238 -9.251959 3.961181 0.000000 0.000000 0.000000 4.428597 0.053766 -1.522774 -4.914224 0.383274 -3.597729 4.530687 7.907123 4.221975 0.000000 0.000000 0.000000 10.186027 -1.806184 -2.461613 -10.632055 0.968344 -5.754772 3.312405 6.816943 3.134161 0.000000 0.000000 0.000000 -31.676464 16.030441 -0.073354 0.000000 0.000000 0.000000 43.836920 -5.457980 5.256390 3.689861 -1.797417 -28.345475 74.887340 35.641215 -6.235361 0.000000 0.000000 0.000000 -67.562295 26.109165 -28.657700 -14.968194 -0.603953 -38.024882 -10.565587 -2.194599 -16.243094 
0.009426 0.956136 0.009058 -3.904218 -4.102712 2.700743 0.000000 0.000000 0.000000 -2.062001 -0.602078 -2.918344 6.274573 -0.518630 0.106309 -5.305206 -9.228840 3.959544 0.000000 0.000000 0.000000 4.416468 0.058075 -1.541071 -4.905148 0.382753 -3.591954 4.543989 7.924345 4.235827 0.000000 0.000000 0.000000 10.124288 -1.802671 -2.413136 -10.433228 0.930138 -5.866155 3.409299 6.800029 3.238693 0.000000 0.000000 0.000000 -31.701385 16.095459 0.064693 0.000000 0.000000 0.000000 43.549805 -5.431218 5.200393 3.565011 -1.802832 -28.085493 74.631190 35.677348 -6.545353 0.000000 0.000000 0.000000 -66.857150 26.103474 -28.359416 -14.860088 -0.568318 -36.955725 -10.832488 -2.225581 -17.001439 
